<?xml version="1.0" encoding="UTF-8"?>
<svg id="Layer_2" data-name="Layer 2" xmlns="http://www.w3.org/2000/svg" viewBox="0 0 32 31.82">
  <defs>
    <style>
      .cls-1 {
        opacity: .75;
      }
    </style>
  </defs>
  <g id="Layer_1-2" data-name="Layer 1">
    <g>
      <g class="cls-1">
        <path d="M13.59,31.59c.77.12,1.54.17,2.31.18v.05c-5.53.04-10.77-2.92-13.62-7.65C-1.24,18.35-.58,11.06,3.52,5.96c.07.08.14.15.22.22C-.36,11.21-.95,18.43,2.43,24.08c2.17,3.66,5.87,6.37,10.02,7.3.36.09.77.16,1.14.22Z"/>
        <path d="M32,16h-.6c0-.95-.08-1.9-.25-2.84-.06-.37-.15-.76-.24-1.12C28.13,1.68,16.45-2.54,7.85,2.62c-.07-.1-.14-.19-.22-.28,9.01-5.51,20.99-.9,23.82,9.56.36,1.33.53,2.72.54,4.1Z"/>
      </g>
      <circle cx="5.59" cy="4.17" r="2.21"/>
      <g>
        <path d="M6.88,17.74c-.15-.23-.36-.4-.63-.52-.27-.12-.6-.18-.98-.18h-1.68v4.48h.47v-1.41h1.2c.38,0,.71-.06.98-.19.27-.12.48-.3.63-.53.15-.23.22-.5.22-.82s-.07-.6-.22-.83ZM6.28,19.39c-.23.19-.57.29-1.02.29h-1.19v-2.24h1.19c.45,0,.79.1,1.02.29.23.2.35.47.35.83s-.12.63-.35.82Z"/>
        <path d="M10,17.03h-.47l-2.05,4.48h.49l.54-1.2h2.5l.54,1.2h.5l-2.05-4.48ZM8.68,19.93l1.08-2.41,1.08,2.41h-2.16Z"/>
        <path d="M15.95,19.97c.06-.02.12-.04.17-.07.27-.12.48-.3.63-.53.15-.23.22-.5.22-.82s-.07-.6-.22-.83c-.15-.23-.36-.4-.63-.52-.27-.12-.6-.18-.98-.18h-1.68v4.48h.48v-1.42h1.2c.13,0,.25,0,.36-.02l1.02,1.44h.52l-1.1-1.54ZM15.13,19.69h-1.19v-2.25h1.19c.45,0,.79.1,1.02.29.23.2.35.47.35.83s-.12.63-.35.83c-.23.2-.57.3-1.02.3Z"/>
        <path d="M20.03,21.55c-.33,0-.65-.05-.96-.16-.31-.11-.54-.25-.71-.42l.19-.36c.16.15.37.28.64.39.27.1.55.16.84.16s.51-.04.69-.11c.18-.07.31-.17.39-.28.08-.12.12-.25.12-.4,0-.18-.05-.32-.15-.42-.1-.11-.23-.19-.39-.25-.16-.06-.34-.12-.54-.16-.2-.05-.39-.1-.59-.15-.2-.05-.38-.12-.54-.21-.16-.09-.3-.21-.4-.36-.1-.15-.15-.34-.15-.58,0-.22.06-.43.18-.61.12-.19.3-.33.54-.45.24-.11.55-.17.93-.17.25,0,.5.04.75.11.25.07.46.17.64.29l-.16.38c-.19-.13-.4-.22-.61-.28-.22-.06-.42-.09-.62-.09-.27,0-.49.04-.67.11-.18.07-.3.17-.39.29-.08.12-.12.26-.12.41,0,.18.05.32.15.42.1.11.23.19.4.25.16.06.34.11.54.16.2.05.39.1.59.15.19.06.37.13.54.21.16.09.3.2.4.35.1.15.15.34.15.57,0,.22-.06.42-.18.61-.12.19-.3.33-.55.45-.25.11-.56.17-.94.17Z"/>
        <polygon points="26.29 21.1 26.29 21.51 23.12 21.51 23.12 17.03 26.19 17.03 26.19 17.44 23.6 17.44 23.6 19.03 25.91 19.03 25.91 19.44 23.6 19.44 23.6 21.1 26.29 21.1"/>
        <path d="M30.05,21.55c-.34,0-.65-.06-.93-.17-.29-.11-.53-.27-.74-.48-.21-.2-.37-.45-.49-.72-.12-.28-.18-.58-.18-.91s.06-.63.18-.91c.12-.28.28-.52.49-.72.21-.2.46-.36.75-.48.29-.11.6-.17.93-.17s.63.05.92.16c.29.11.53.27.72.49l-.3.3c-.18-.19-.39-.32-.61-.41-.22-.08-.46-.12-.72-.12-.27,0-.52.05-.75.14s-.43.22-.6.39c-.17.17-.3.36-.4.59s-.14.47-.14.74.05.52.14.74.23.42.4.59c.17.17.37.3.6.39s.48.14.75.14.5-.04.72-.13c.22-.09.42-.22.61-.41l.3.3c-.2.22-.44.38-.72.49-.29.11-.59.17-.92.17Z"/>
      </g>
    </g>
  </g>
</svg>